<svg width="32" height="32" viewBox="0 0 32 32" fill="none" xmlns="http://www.w3.org/2000/svg">
<mask id="mask0_2420_11122" style="mask-type:alpha" maskUnits="userSpaceOnUse" x="0" y="0" width="32" height="32">
<rect width="32" height="32" fill="#D9D9D9"/>
</mask>
<g mask="url(#mask0_2420_11122)">
<path d="M16 18.667C15.6222 18.667 15.3056 18.5392 15.05 18.2837C14.7944 18.0281 14.6667 17.7114 14.6667 17.3337C14.6667 16.9559 14.7944 16.6392 15.05 16.3837C15.3056 16.1281 15.6222 16.0003 16 16.0003C16.3778 16.0003 16.6944 16.1281 16.95 16.3837C17.2056 16.6392 17.3333 16.9559 17.3333 17.3337C17.3333 17.7114 17.2056 18.0281 16.95 18.2837C16.6944 18.5392 16.3778 18.667 16 18.667ZM10.6667 18.667C10.2889 18.667 9.97222 18.5392 9.71667 18.2837C9.46111 18.0281 9.33333 17.7114 9.33333 17.3337C9.33333 16.9559 9.46111 16.6392 9.71667 16.3837C9.97222 16.1281 10.2889 16.0003 10.6667 16.0003C11.0444 16.0003 11.3611 16.1281 11.6167 16.3837C11.8722 16.6392 12 16.9559 12 17.3337C12 17.7114 11.8722 18.0281 11.6167 18.2837C11.3611 18.5392 11.0444 18.667 10.6667 18.667ZM21.3333 18.667C20.9556 18.667 20.6389 18.5392 20.3833 18.2837C20.1278 18.0281 20 17.7114 20 17.3337C20 16.9559 20.1278 16.6392 20.3833 16.3837C20.6389 16.1281 20.9556 16.0003 21.3333 16.0003C21.7111 16.0003 22.0278 16.1281 22.2833 16.3837C22.5389 16.6392 22.6667 16.9559 22.6667 17.3337C22.6667 17.7114 22.5389 18.0281 22.2833 18.2837C22.0278 18.5392 21.7111 18.667 21.3333 18.667ZM16 24.0003C15.6222 24.0003 15.3056 23.8725 15.05 23.617C14.7944 23.3614 14.6667 23.0448 14.6667 22.667C14.6667 22.2892 14.7944 21.9725 15.05 21.717C15.3056 21.4614 15.6222 21.3337 16 21.3337C16.3778 21.3337 16.6944 21.4614 16.95 21.717C17.2056 21.9725 17.3333 22.2892 17.3333 22.667C17.3333 23.0448 17.2056 23.3614 16.95 23.617C16.6944 23.8725 16.3778 24.0003 16 24.0003ZM10.6667 24.0003C10.2889 24.0003 9.97222 23.8725 9.71667 23.617C9.46111 23.3614 9.33333 23.0448 9.33333 22.667C9.33333 22.2892 9.46111 21.9725 9.71667 21.717C9.97222 21.4614 10.2889 21.3337 10.6667 21.3337C11.0444 21.3337 11.3611 21.4614 11.6167 21.717C11.8722 21.9725 12 22.2892 12 22.667C12 23.0448 11.8722 23.3614 11.6167 23.617C11.3611 23.8725 11.0444 24.0003 10.6667 24.0003ZM21.3333 24.0003C20.9556 24.0003 20.6389 23.8725 20.3833 23.617C20.1278 23.3614 20 23.0448 20 22.667C20 22.2892 20.1278 21.9725 20.3833 21.717C20.6389 21.4614 20.9556 21.3337 21.3333 21.3337C21.7111 21.3337 22.0278 21.4614 22.2833 21.717C22.5389 21.9725 22.6667 22.2892 22.6667 22.667C22.6667 23.0448 22.5389 23.3614 22.2833 23.617C22.0278 23.8725 21.7111 24.0003 21.3333 24.0003ZM6.66667 29.3337C5.93333 29.3337 5.30556 29.0725 4.78333 28.5503C4.26111 28.0281 4 27.4003 4 26.667V8.00033C4 7.26699 4.26111 6.63921 4.78333 6.11699C5.30556 5.59477 5.93333 5.33366 6.66667 5.33366H8V2.66699H10.6667V5.33366H21.3333V2.66699H24V5.33366H25.3333C26.0667 5.33366 26.6944 5.59477 27.2167 6.11699C27.7389 6.63921 28 7.26699 28 8.00033V26.667C28 27.4003 27.7389 28.0281 27.2167 28.5503C26.6944 29.0725 26.0667 29.3337 25.3333 29.3337H6.66667ZM6.66667 26.667H25.3333V13.3337H6.66667V26.667Z" fill="white"/>
</g>
</svg>
