<svg width="32" height="32" viewBox="0 0 32 32" fill="none" xmlns="http://www.w3.org/2000/svg">
<path d="M22.3463 24.7879V27.9298C22.3463 28.9653 21.5068 29.8048 20.4713 29.8048H5.90625C4.87068 29.8048 4.03125 28.9653 4.03125 27.9298V8.46289C4.03125 7.42733 4.87068 6.58789 5.90625 6.58789H10.2813V22.9129C10.2813 23.9485 11.1207 24.7879 12.1563 24.7879H22.3463Z" fill="#A4E7FF"/>
<path d="M27.9713 7.79968V23.5372C27.9713 24.5728 27.1318 25.4122 26.0963 25.4122H11.5313C10.4957 25.4122 9.65625 24.5728 9.65625 23.5372V4.07031C9.65625 3.03474 10.4957 2.19531 11.5313 2.19531H22.5313L22.5938 2.25968L22.5313 2.32031V6.78093C22.5313 7.34356 22.9874 7.79968 23.55 7.79968H27.8463L27.9107 7.73718L27.9713 7.79968Z" fill="#00ACEA"/>
<path d="M27.9107 7.73727L27.8463 7.79977H23.5499C22.9873 7.79977 22.5312 7.34364 22.5312 6.78102V2.32039L22.5938 2.25977L27.9107 7.73727Z" fill="#A4E7FF"/>
<path d="M24.5192 15.5197H12.793C12.4478 15.5197 12.168 15.2399 12.168 14.8947C12.168 14.5495 12.4478 14.2697 12.793 14.2697H24.5192C24.8644 14.2697 25.1442 14.5495 25.1442 14.8947C25.1442 15.2399 24.8644 15.5197 24.5192 15.5197ZM19.813 12.0234H12.793C12.4478 12.0234 12.168 11.7436 12.168 11.3984C12.168 11.0532 12.4478 10.7734 12.793 10.7734H19.813C20.1582 10.7734 20.438 11.0532 20.438 11.3984C20.438 11.7436 20.1582 12.0234 19.813 12.0234ZM24.5192 19.2697H12.793C12.4478 19.2697 12.168 18.9899 12.168 18.6447C12.168 18.2995 12.4478 18.0197 12.793 18.0197H24.5192C24.8644 18.0197 25.1442 18.2995 25.1442 18.6447C25.1442 18.9899 24.8644 19.2697 24.5192 19.2697Z" fill="white"/>
</svg>
