<svg width="32" height="32" viewBox="0 0 32 32" fill="none" xmlns="http://www.w3.org/2000/svg">
<path d="M29.1244 21.7529V19.4814C28.822 19.6736 28.4984 19.8302 28.16 19.9481C27.1064 20.3294 25.7252 20.5393 24.2507 20.5393C22.7762 20.5393 21.3904 20.3294 20.3367 19.9481C19.999 19.8302 19.6761 19.6736 19.3744 19.4814V21.8289C19.3744 22.3499 21.0347 23.3217 24.2494 23.3217C27.4641 23.3217 29.1244 22.3499 29.1244 21.8289V21.7529ZM24.244 16.0071C27.4587 16.0071 29.1402 15.0353 29.1402 14.5143C29.1402 13.9934 27.459 13.0215 24.244 13.0215C21.029 13.0215 19.3477 13.9933 19.3477 14.5143C19.3477 15.0353 21.0294 16.0071 24.244 16.0071Z" fill="#3AD740"/>
<path d="M24.2514 24.1974C22.7768 24.1974 21.3912 23.9874 20.3374 23.6062C19.9997 23.4883 19.6767 23.3317 19.3749 23.1395V25.5124C19.3749 26.0334 21.0412 27.0052 24.2562 27.0052C25.0616 27.0086 25.8655 26.9361 26.6572 26.7887C27.4484 26.6369 28.1057 26.4137 28.5627 26.1449C28.9252 25.9314 29.1252 25.7012 29.1252 25.5126V23.1395C28.8228 23.3317 28.4992 23.4883 28.1608 23.6062C27.1071 23.9874 25.726 24.1974 24.2514 24.1974ZM29.1252 15.8243C28.8227 16.0165 28.499 16.1732 28.1606 16.2911C27.1066 16.6724 25.7256 16.8826 24.2514 16.8826C22.7773 16.8826 21.3917 16.6726 20.3377 16.2911C19.9999 16.1732 19.6769 16.0165 19.3752 15.8243V18.1722C19.3752 18.6932 21.0355 19.665 24.2502 19.665C27.4649 19.665 29.1252 18.6932 29.1252 18.1722V15.8243ZM4.9768 9.22247C6.48186 9.76715 8.49187 10.0671 10.6367 10.0671C12.7815 10.0671 14.7915 9.76709 16.2966 9.22247C17.6224 8.74265 18.414 8.11053 18.414 7.53165C18.414 6.95278 17.6224 6.32065 16.2966 5.84078C14.7915 5.29609 12.7814 4.99609 10.6367 4.99609C8.49193 4.99609 6.48186 5.29609 4.9768 5.84078C3.65093 6.32065 2.85938 6.95272 2.85938 7.53165C2.85938 8.11059 3.65093 8.74265 4.9768 9.22247ZM18.4377 18.6803V14.7139C17.8778 15.1224 17.2616 15.4473 16.6084 15.6786C15.0107 16.2567 12.885 16.5751 10.6406 16.5751C8.39625 16.5751 6.28436 16.2567 4.68668 15.6786C3.92518 15.4031 3.31269 15.0769 2.87519 14.7139V18.7976C2.87519 19.3769 3.66168 20.0091 4.98768 20.4888C6.49224 21.0332 8.4975 21.3331 10.6429 21.3331C12.7882 21.3331 14.8044 21.0331 16.3091 20.4888C17.6344 20.0091 18.4377 19.3769 18.4377 18.7976V18.6803Z" fill="#3AD740"/>
<path d="M18.4375 9.08008C17.8776 9.48856 17.2613 9.81356 16.6079 10.0449C15.0098 10.6233 12.8841 10.9418 10.6404 10.9418C8.39675 10.9418 6.28494 10.623 4.68675 10.0449C3.92544 9.76914 3.3125 9.44314 2.875 9.08008V13.1643C2.875 13.7436 3.6615 14.3758 4.9875 14.8555C6.49206 15.4 8.49731 15.6998 10.6427 15.6998C12.7881 15.6998 14.8042 15.3998 16.3089 14.8555C17.6345 14.3758 18.4378 13.7436 18.4378 13.1643L18.4375 9.08008ZM10.6404 22.2078C8.39612 22.2078 6.28419 21.8894 4.6865 21.3113C3.925 21.0358 3.3125 20.7096 2.875 20.3466V24.4695C2.875 25.0488 3.6615 25.681 4.9875 26.1606C6.49206 26.705 8.49725 27.0048 10.6427 27.0048C11.9073 27.01 13.1697 26.8971 14.4133 26.6673C16.7745 26.2143 18.4375 25.3102 18.4375 24.4691V20.3466C17.8776 20.7551 17.2614 21.08 16.6082 21.3113C15.0106 21.8894 12.8848 22.2078 10.6404 22.2078Z" fill="#009A06"/>
</svg>
