<svg width="33" height="32" viewBox="0 0 33 32" fill="none" xmlns="http://www.w3.org/2000/svg">
<path fill-rule="evenodd" clip-rule="evenodd" d="M17.2795 2.66602C24.8968 2.66602 31.0942 8.86335 31.0942 16.4807C31.0942 24.098 24.8968 30.2953 17.2795 30.2953C9.66218 30.2953 3.46484 24.098 3.46484 16.4807C3.46484 8.86335 9.66218 2.66602 17.2795 2.66602ZM17.2795 4.66602C10.7648 4.66602 5.46484 9.96735 5.46484 16.4807C5.46484 22.9953 10.7648 28.2953 17.2795 28.2953C23.7942 28.2953 29.0942 22.9953 29.0942 16.4807C29.0942 9.96735 23.7942 4.66602 17.2795 4.66602ZM22.4416 11.3192C22.7043 11.5832 22.8003 11.9712 22.6883 12.3245L20.5656 19.1099C20.4683 19.4232 20.2216 19.6685 19.9096 19.7659L13.1243 21.8899C13.0256 21.9205 12.9243 21.9352 12.8256 21.9352C12.5643 21.9352 12.3083 21.8325 12.1176 21.6432C11.855 21.3792 11.759 20.9912 11.871 20.6379L13.995 13.8525C14.0923 13.5379 14.3376 13.2939 14.6496 13.1965L21.435 11.0725C21.791 10.9592 22.1776 11.0565 22.4416 11.3192ZM20.2096 13.5512L15.747 14.9485L14.351 19.4112L18.8123 18.0139L20.2096 13.5512Z" fill="#187CFF"/>
</svg>
