<svg width="33" height="32" viewBox="0 0 33 32" fill="none" xmlns="http://www.w3.org/2000/svg">
<g clip-path="url(#clip0_2420_10268)">
<mask id="mask0_2420_10268" style="mask-type:luminance" maskUnits="userSpaceOnUse" x="0" y="0" width="33" height="32">
<path d="M32.5 0H0.5V32H32.5V0Z" fill="white"/>
</mask>
<g mask="url(#mask0_2420_10268)">
<path d="M20.6617 27.0747H12.3367C11.3305 27.0747 10.5117 27.8934 10.5117 28.8996V30.8747C10.5117 31.4996 11.0242 32.0059 11.643 32.0059H21.3429C21.968 32.0059 22.4743 31.4996 22.4743 30.8747V28.8996C22.4804 27.8871 21.6617 27.0747 20.6617 27.0747ZM15.5804 17.8684C15.5804 18.3747 15.9929 18.7871 16.4992 18.7871C17.0055 18.7871 17.418 18.3747 17.418 17.8684C17.418 17.3684 17.0117 16.9434 16.4929 16.9434C15.9867 16.9496 15.5804 17.3622 15.5804 17.8684Z" fill="#7A0AEA"/>
<path d="M16.9393 7.98706C16.9081 7.94331 16.8393 7.96206 16.8393 8.01831V16.3184C17.5518 16.4746 18.0956 17.1058 18.0956 17.8746C18.0956 18.7496 17.383 19.4558 16.5081 19.4558C15.6956 19.4558 15.0581 18.8621 14.9393 18.1308C14.8018 17.2558 15.3769 16.487 16.1706 16.3184V8.01831C16.1706 7.96206 16.0956 7.94331 16.0706 7.98706L8.98933 18.937C8.47683 19.7308 8.67058 20.8058 9.42683 21.3808C11.2831 22.7808 12.4206 24.4308 12.8893 26.4058H20.1144C20.583 24.4308 21.7206 22.7808 23.5769 21.3808C24.3393 20.8058 24.533 19.7308 24.0144 18.937L16.9393 7.98706Z" fill="#7A0AEA"/>
<path d="M30.2625 13.9437C29.3751 8.75625 25.6251 4.53751 20.7 2.98125C23.1875 2.98751 25.6312 2.99375 27.7937 2.99375C27.9688 4.13125 28.95 5 30.1312 5C31.4375 5 32.5 3.93749 32.5 2.63125C32.5 1.325 31.4375 0.2625 30.1312 0.2625C28.9312 0.2625 27.9375 1.1625 27.7875 2.325C25.7375 2.31875 22.5688 2.31251 19.1688 2.30625V1.36249C19.1688 0.6125 18.5625 0 17.8125 0H15.1875C14.4375 0 13.825 0.6125 13.825 1.36249V2.30625C9.45625 2.3 6.81249 2.3 5.2 2.30625C5.04375 1.15625 4.05625 0.268751 2.86875 0.268751C1.5625 0.268751 0.5 1.33125 0.5 2.63125C0.5 3.93749 1.5625 5 2.86875 5C4.05625 5 5.04375 4.11875 5.20625 2.975C6.91875 2.96875 9.45 2.96875 12.3313 2.96875C7.39375 4.51875 3.625 8.74375 2.73749 13.9437C1.4875 14.0125 0.5 15.0437 0.5 16.3063C0.5 17.6125 1.5625 18.6749 2.86875 18.6749C4.175 18.6749 5.23751 17.6125 5.23751 16.3063C5.23751 15.1875 4.45625 14.25 3.40625 14.0063C4.35 8.63751 8.51251 4.36251 13.8313 3.275V3.98125C13.8313 4.73125 14.4437 5.34375 15.1937 5.34375H17.8125C18.5625 5.34375 19.1749 4.73125 19.1749 3.98125V3.26875C24.4937 4.35625 28.6625 8.63125 29.6 14C28.5563 14.2437 27.7688 15.1812 27.7688 16.3C27.7688 17.6063 28.8312 18.6688 30.1375 18.6688C31.4437 18.6688 32.5063 17.6063 32.5063 16.3C32.5 15.0437 31.5125 14.0125 30.2625 13.9437Z" fill="#B265FF"/>
</g>
</g>
<defs>
<clipPath id="clip0_2420_10268">
<rect width="32" height="32" fill="white" transform="translate(0.5)"/>
</clipPath>
</defs>
</svg>
