<svg width="32" height="32" viewBox="0 0 32 32" fill="none" xmlns="http://www.w3.org/2000/svg">
<mask id="mask0_2420_11136" style="mask-type:alpha" maskUnits="userSpaceOnUse" x="0" y="0" width="32" height="32">
<rect width="32" height="32" fill="#D9D9D9"/>
</mask>
<g mask="url(#mask0_2420_11136)">
<path d="M8 30.6667C6.88889 30.6667 5.94444 30.2778 5.16667 29.5C4.38889 28.7222 4 27.7778 4 26.6667C4 25.5556 4.38889 24.6111 5.16667 23.8333C5.94444 23.0556 6.88889 22.6667 8 22.6667C8.31111 22.6667 8.6 22.7 8.86667 22.7667C9.13333 22.8333 9.38889 22.9222 9.63333 23.0333L11.5333 20.6667C10.9111 19.9778 10.4778 19.2 10.2333 18.3333C9.98889 17.4667 9.93333 16.6 10.0667 15.7333L7.36667 14.8333C6.98889 15.3889 6.51111 15.8333 5.93333 16.1667C5.35556 16.5 4.71111 16.6667 4 16.6667C2.88889 16.6667 1.94444 16.2778 1.16667 15.5C0.388889 14.7222 0 13.7778 0 12.6667C0 11.5556 0.388889 10.6111 1.16667 9.83333C1.94444 9.05556 2.88889 8.66667 4 8.66667C5.11111 8.66667 6.05556 9.05556 6.83333 9.83333C7.61111 10.6111 8 11.5556 8 12.6667V12.9333L10.7 13.8667C11.1444 13.0667 11.7389 12.3889 12.4833 11.8333C13.2278 11.2778 14.0667 10.9222 15 10.7667V7.86667C14.1333 7.62222 13.4167 7.15 12.85 6.45C12.2833 5.75 12 4.93333 12 4C12 2.88889 12.3889 1.94444 13.1667 1.16667C13.9444 0.388889 14.8889 0 16 0C17.1111 0 18.0556 0.388889 18.8333 1.16667C19.6111 1.94444 20 2.88889 20 4C20 4.93333 19.7111 5.75 19.1333 6.45C18.5556 7.15 17.8444 7.62222 17 7.86667V10.7667C17.9333 10.9222 18.7722 11.2778 19.5167 11.8333C20.2611 12.3889 20.8556 13.0667 21.3 13.8667L24 12.9333V12.6667C24 11.5556 24.3889 10.6111 25.1667 9.83333C25.9444 9.05556 26.8889 8.66667 28 8.66667C29.1111 8.66667 30.0556 9.05556 30.8333 9.83333C31.6111 10.6111 32 11.5556 32 12.6667C32 13.7778 31.6111 14.7222 30.8333 15.5C30.0556 16.2778 29.1111 16.6667 28 16.6667C27.2889 16.6667 26.6389 16.5 26.05 16.1667C25.4611 15.8333 24.9889 15.3889 24.6333 14.8333L21.9333 15.7333C22.0667 16.6 22.0111 17.4611 21.7667 18.3167C21.5222 19.1722 21.0889 19.9556 20.4667 20.6667L22.3667 23C22.6111 22.8889 22.8667 22.8056 23.1333 22.75C23.4 22.6944 23.6889 22.6667 24 22.6667C25.1111 22.6667 26.0556 23.0556 26.8333 23.8333C27.6111 24.6111 28 25.5556 28 26.6667C28 27.7778 27.6111 28.7222 26.8333 29.5C26.0556 30.2778 25.1111 30.6667 24 30.6667C22.8889 30.6667 21.9444 30.2778 21.1667 29.5C20.3889 28.7222 20 27.7778 20 26.6667C20 26.2222 20.0722 25.7944 20.2167 25.3833C20.3611 24.9722 20.5556 24.6 20.8 24.2667L18.9 21.9C17.9889 22.4111 17.0167 22.6667 15.9833 22.6667C14.95 22.6667 13.9778 22.4111 13.0667 21.9L11.2 24.2667C11.4444 24.6 11.6389 24.9722 11.7833 25.3833C11.9278 25.7944 12 26.2222 12 26.6667C12 27.7778 11.6111 28.7222 10.8333 29.5C10.0556 30.2778 9.11111 30.6667 8 30.6667Z" fill="#187CFF"/>
</g>
</svg>
