<svg width="33" height="32" viewBox="0 0 33 32" fill="none" xmlns="http://www.w3.org/2000/svg">
<path d="M3 31C4.10457 31 5 30.1046 5 29C5 27.8954 4.10457 27 3 27C1.89543 27 1 27.8954 1 29C1 30.1046 1.89543 31 3 31Z" fill="#67A4FF"/>
<path d="M30 5C31.1046 5 32 4.10457 32 3C32 1.89543 31.1046 1 30 1C28.8954 1 28 1.89543 28 3C28 4.10457 28.8954 5 30 5Z" fill="#67A4FF"/>
<path d="M3.35153 7.35348L4.99803 5.70698L6.64453 7.35348L7.35153 6.64648L5.70503 4.99998L7.35153 3.35348L6.64453 2.64648L4.99803 4.29299L3.35153 2.64648L2.64453 3.35348L4.29103 4.99998L2.64453 6.64648L3.35153 7.35348ZM29.1446 23.793L27.4981 25.4395L25.8516 23.793L25.1446 24.5L26.791 26.1465L25.1446 27.793L25.8516 28.5L27.4981 26.8535L29.1446 28.5L29.8516 27.793L28.2051 26.1465L29.8516 24.5L29.1446 23.793ZM6.38003 22.323C7.11144 21.4594 8.07149 20.8194 9.15003 20.4765L8.84603 19.5235C7.58826 19.9233 6.46874 20.6697 5.61603 21.677C4.71954 22.7475 4.15788 24.0581 4.00103 25.4455L4.99503 25.5545C5.12955 24.3648 5.61123 23.2409 6.38003 22.323ZM28.7621 6.99998L25.9981 9.63798L27.6846 9.97648C27.5985 10.2246 27.4956 10.4664 27.3766 10.7005C26.7865 11.8089 25.8749 12.7128 24.7616 13.2935L25.2346 14.175C26.5265 13.4986 27.5832 12.4468 28.2656 11.158C28.4254 10.8409 28.5596 10.5115 28.6671 10.173L30.2945 10.5L28.7621 6.99998Z" fill="#67A4FF"/>
<path d="M16.5 17.5C17.6046 17.5 18.5 16.6046 18.5 15.5C18.5 14.3954 17.6046 13.5 16.5 13.5C15.3954 13.5 14.5 14.3954 14.5 15.5C14.5 16.6046 15.3954 17.5 16.5 17.5Z" fill="#064EBA"/>
<path d="M19.9995 22.6458C19.9993 22.2482 20.0876 21.8555 20.2582 21.4963C20.4287 21.1371 20.6772 20.8204 20.9855 20.5693C21.7684 19.9389 22.4004 19.1415 22.8354 18.2354C23.2704 17.3293 23.4973 16.3374 23.4995 15.3323C23.4551 13.5636 22.7435 11.8771 21.5075 10.6111C20.2715 9.3452 18.6026 8.59338 16.8355 8.50651C15.0683 8.41964 13.3337 9.00416 11.9795 10.1428C10.6253 11.2814 9.75178 12.89 9.53406 14.6458C9.42058 15.7699 9.59173 16.9046 10.0317 17.9452C10.4718 18.9858 11.1665 19.8991 12.052 20.6008C12.3527 20.8492 12.5939 21.1619 12.7579 21.5157C12.9219 21.8696 13.0045 22.2558 12.9995 22.6458V23.9998H19.9995V22.6458ZM18.674 18.8308C18.611 18.7699 18.53 18.7308 18.4431 18.7193C18.3561 18.7077 18.2678 18.7244 18.191 18.7668C18.0056 18.8632 17.8122 18.9435 17.613 19.0068C17.5291 19.0313 17.4551 19.0821 17.4021 19.1516C17.349 19.2211 17.3196 19.3058 17.318 19.3933V19.9998H15.6815V19.3933C15.68 19.3058 15.6505 19.221 15.5973 19.1515C15.5441 19.0819 15.4701 19.0312 15.386 19.0068C15.1869 18.9435 14.9935 18.8632 14.808 18.7668C14.7312 18.7245 14.6429 18.7079 14.5559 18.7195C14.469 18.7311 14.3881 18.7703 14.325 18.8313L13.896 19.2603L12.739 18.1033L13.168 17.6738C13.2289 17.6108 13.268 17.53 13.2797 17.4432C13.2913 17.3563 13.2748 17.2681 13.2325 17.1913C13.1362 17.0059 13.0559 16.8125 12.9925 16.6133C12.968 16.5293 12.9173 16.4554 12.8477 16.4023C12.7782 16.3492 12.6935 16.3198 12.606 16.3183H11.9995V14.6818H12.606C12.6936 14.6803 12.7783 14.6507 12.8479 14.5976C12.9174 14.5444 12.9681 14.4704 12.9925 14.3863C13.0559 14.1871 13.1362 13.9937 13.2325 13.8083C13.2749 13.7315 13.2914 13.6431 13.2798 13.5562C13.2682 13.4692 13.229 13.3883 13.168 13.3253L12.739 12.8963L13.896 11.7393L14.3255 12.1683C14.3885 12.2292 14.4694 12.2683 14.5562 12.2799C14.643 12.2915 14.7313 12.275 14.808 12.2328C14.9935 12.1364 15.1869 12.0561 15.386 11.9928C15.47 11.9683 15.5439 11.9175 15.597 11.848C15.6501 11.7785 15.6795 11.6938 15.681 11.6063V10.9998H17.3175V11.6063C17.3191 11.6938 17.3486 11.7786 17.4018 11.8481C17.4549 11.9177 17.529 11.9684 17.613 11.9928C17.8122 12.0561 18.0056 12.1364 18.191 12.2328C18.2679 12.2751 18.3562 12.2917 18.4432 12.2801C18.5301 12.2685 18.611 12.2293 18.674 12.1683L19.103 11.7393L19.1815 11.8178L20.26 12.8963L19.831 13.3258C19.7702 13.3888 19.731 13.4696 19.7194 13.5564C19.7078 13.6433 19.7243 13.7315 19.7665 13.8083C19.8629 13.9937 19.9432 14.1871 20.0065 14.3863C20.0311 14.4703 20.0818 14.5442 20.1513 14.5973C20.2209 14.6503 20.3056 14.6798 20.393 14.6813H20.9995V16.3178H20.393C20.3055 16.3193 20.2208 16.3488 20.1512 16.402C20.0817 16.4552 20.031 16.5292 20.0065 16.6133C19.9432 16.8125 19.8629 17.0059 19.7665 17.1913C19.7242 17.2681 19.7076 17.3565 19.7193 17.4434C19.7309 17.5304 19.77 17.6113 19.831 17.6743L20.26 18.1033L19.103 19.2603L18.674 18.8308ZM12.9995 25.6433C13.0119 26.4129 13.3293 27.146 13.882 27.6817C14.4347 28.2174 15.1775 28.5117 15.947 28.4998H17.052C17.8217 28.5117 18.5645 28.2172 19.1172 27.6815C19.67 27.1457 19.9873 26.4124 19.9995 25.6428V24.9998H12.9995V25.6433Z" fill="#064EBA"/>
</svg>
