<svg width="158" height="33" viewBox="0 0 158 33" fill="none" xmlns="http://www.w3.org/2000/svg">
<g clip-path="url(#clip0_2420_11686)">
<path d="M158.021 15.4726C157.95 15.567 157.845 15.5931 157.815 15.6554C157.61 16.0842 157.294 16.2031 156.813 16.2003C153.011 16.1783 149.209 16.1896 145.407 16.1906C145.224 16.1907 145.042 16.1906 144.858 16.1906C144.912 16.6028 144.888 17.022 145.032 17.3724C145.242 17.886 145.549 18.367 145.862 18.8298C146.072 19.1395 146.344 19.4158 146.623 19.6677C147.274 20.2545 148.092 20.5206 148.878 20.8764C149.772 21.2812 150.665 21.1839 151.519 21.0865C152.07 21.0236 152.742 20.9829 153.244 20.5436C153.424 20.3864 153.721 20.3658 153.962 20.2741C154.091 20.2246 154.254 20.1888 154.333 20.0911C154.796 19.5153 155.43 19.715 156.006 19.7227C156.463 19.7288 156.908 20.5685 156.817 21.0136C156.683 21.6699 156.246 21.9702 155.684 22.2042C155.406 22.3201 155.165 22.5211 154.9 22.6717C154.744 22.7602 154.574 22.8229 154.412 22.9014C154.011 23.0964 153.61 23.2934 153.21 23.4906C153.163 23.5137 153.12 23.5632 153.073 23.566C151.853 23.6391 150.633 23.7309 149.412 23.7638C149.001 23.7748 148.518 23.7408 148.193 23.5326C147.859 23.3184 147.35 23.4154 147.16 22.9609C147.147 22.9288 147.068 22.9206 147.018 22.9078C146.307 22.7253 145.208 22.1119 144.766 21.5292C144.39 21.0332 143.786 20.6987 143.654 20.0198C143.646 19.9749 143.537 19.9512 143.478 19.9138C143.028 19.6319 142.991 19.1211 142.814 18.693C142.598 18.1728 142.575 17.5779 142.181 17.1238C142.124 17.0582 142.152 16.9136 142.152 16.8055C142.148 15.7237 142.083 14.6368 142.171 13.5623C142.215 13.0194 142.537 12.4992 142.733 11.9685C142.758 11.9016 142.788 11.8348 142.799 11.7653C142.931 10.9327 143.271 10.2264 143.922 9.65325C144.2 9.40868 144.309 8.97712 144.58 8.72013C145.114 8.21387 145.676 7.72276 146.289 7.31866C146.647 7.08207 147.116 6.98228 147.55 6.89644C148.655 6.67806 149.751 6.31756 150.9 6.50201C151.516 6.601 152.129 6.73575 152.734 6.8892C154.716 7.39147 156.094 8.64263 157.005 10.4283C157.218 10.8464 157.198 11.4487 157.503 11.7399C157.977 12.1936 157.611 12.7778 157.975 13.2077C158.021 13.9484 158.021 14.6847 158.021 15.4726ZM152.012 13.8725C153.159 13.8725 154.306 13.8725 155.557 13.8725C155.208 12.9281 155.031 12.0049 154.558 11.2706C153.888 10.2283 152.83 9.43413 151.66 9.1206C149.771 8.61443 147.95 9.19734 146.547 10.4754C145.642 11.3 144.971 12.4603 144.903 13.8725C147.285 13.8725 149.593 13.8725 152.012 13.8725Z" fill="white"/>
<path d="M23.3443 0C23.7533 0.300504 24.1386 0.573968 24.4622 0.907193C25.1176 1.58223 25.7987 2.24505 26.3645 2.99199C28.1156 5.30381 29.4488 7.86754 30.7229 10.4604C31.1296 11.2881 31.4826 12.1421 31.9057 13.0857C26.0082 10.9927 19.9484 10.3125 13.7539 9.99466C13.9351 9.55773 14.0736 9.13506 14.2778 8.74687C15.2083 6.97785 16.1039 5.18723 17.116 3.46531C17.9733 2.00686 19.0934 0.76792 20.7782 0.196865C20.8226 0.181833 20.851 0.119906 20.8734 0.0399246C21.6709 4.46234e-07 22.4818 4.40386e-07 23.3443 0Z" fill="white"/>
<path d="M139.116 0C139.586 0.349761 139.497 0.830713 139.498 1.28685C139.498 6.99325 139.472 12.6999 139.527 18.4058C139.534 19.216 139.725 20.1432 140.504 20.6679C140.929 20.9542 141.415 21.245 141.99 21.1429C142.508 21.0512 142.895 21.2741 143.093 21.7159C143.328 22.2405 143.044 22.9475 142.726 23.3034C142.483 23.5757 142.243 23.5567 141.966 23.5603C141.488 23.5665 141.01 23.5639 140.532 23.5658C139.9 23.5683 139.761 23.3054 139.094 22.9992C138.553 22.7506 138.378 22.2829 137.991 21.9674C137.724 21.7493 137.584 21.3705 137.402 21.0551C136.634 19.7264 136.991 18.2686 136.98 16.8702C136.937 11.6045 136.966 6.3382 136.954 1.07219C136.953 0.67733 136.975 0.328567 137.299 0.0335883C137.883 0 138.474 0 139.116 0Z" fill="white"/>
<path d="M0.43015 32.2217C0.354106 32.3935 0.278061 32.5652 0.221775 32.7735C-0.191261 32.8425 0.11835 32.5044 0.0210172 32.3145C0.105039 32.2324 0.189062 32.2053 0.329883 32.1797C0.40117 32.1947 0.41566 32.2082 0.43015 32.2217Z" fill="white"/>
<path d="M0.367188 32.16C0.967731 30.9928 1.56776 29.8331 2.21708 28.7016C3.43621 26.5772 4.67586 24.4645 5.92181 22.3556C7.2137 20.169 8.52406 17.9933 9.8238 15.8113C9.98118 15.5471 10.1228 15.2736 10.3249 14.9082C8.15312 13.8752 5.8072 13.6834 3.52192 13.1071C4.38254 12.9588 5.23822 12.7366 6.1049 12.6788C7.56519 12.5814 9.0326 12.5532 10.4967 12.5594C12.7648 12.569 14.9703 13.0268 17.1484 13.6185C19.9316 14.3745 22.5752 15.4812 25.1186 16.8325C27.7545 18.2328 30.2337 19.8679 32.6101 21.6755C35.3673 23.7728 37.8998 26.1108 40.2863 28.6084C41.3042 29.6738 42.2264 30.8304 43.1889 31.9482C43.219 31.9832 43.2139 32.0483 43.2606 32.2586C42.9919 32.0203 42.8147 31.8721 42.6476 31.7134C41.1006 30.2448 39.5893 28.7366 38.0012 27.3137C35.8941 25.4257 33.5199 23.9085 31.0004 22.6301C28.6553 21.4402 26.17 20.616 23.5626 20.2868C21.425 20.017 19.2768 20.0561 17.1309 20.4486C15.0024 20.8379 12.9945 21.5418 11.0836 22.511C9.28454 23.4235 7.65534 24.5972 6.09566 25.8903C3.90235 27.7086 2.10113 29.85 0.459505 32.1955C0.4179 32.2072 0.40341 32.1937 0.367188 32.16Z" fill="white"/>
<path d="M73.9908 28.953C73.9908 29.1349 73.9908 29.3169 73.9908 29.54C73.9094 29.4454 73.8507 29.3772 73.7047 29.2076C73.6915 29.4858 73.6803 29.6558 73.676 29.826C73.6643 30.2879 73.3632 30.594 72.9001 30.6076C72.7717 30.6113 72.6429 30.6071 72.5143 30.6067C71.553 30.6031 71.0326 30.081 71.032 29.115C71.0286 24.0335 71.0222 18.952 71.0349 13.8706C71.0355 13.6372 71.2106 13.405 71.3005 13.1707C71.3262 13.1037 71.3612 13.0285 71.3526 12.9621C71.2382 12.0769 71.9085 11.4807 72.1692 10.7346C72.4314 9.98415 72.9042 9.35524 73.4794 8.84335C74.0211 8.3613 74.6713 7.99921 75.2824 7.59743C75.486 7.4636 75.7503 7.40861 75.9279 7.25125C76.4756 6.76597 77.2018 6.95599 77.8051 6.71356C78.7991 6.3141 79.8322 6.49711 80.8417 6.52475C81.5204 6.54333 82.2343 6.70012 82.8568 6.96928C83.5643 7.27512 84.1951 7.76361 84.8443 8.19523C85.1923 8.42665 85.5682 8.65705 85.8263 8.97347C86.269 9.51604 86.5882 10.1595 87.0346 10.6983C87.5488 11.3188 87.5754 12.085 87.84 12.7725C88.3899 14.2008 88.0401 15.6217 88.0682 17.0345C88.0811 17.6808 87.6482 18.3407 87.3967 18.9864C86.9237 20.2008 86.056 21.1221 85.1102 21.9773C84.9739 22.1006 84.7649 22.1399 84.6085 22.2458C84.4845 22.3298 84.4056 22.4832 84.2787 22.5594C83.7517 22.8762 83.1456 23.0384 82.6056 23.2898C81.3723 23.8642 80.0948 23.8784 78.854 23.716C78.3146 23.6454 77.6244 23.7924 77.105 23.2773C76.8558 23.0301 76.3701 23.0246 75.996 22.8963C75.9064 22.8655 75.8345 22.7824 75.7555 22.722C75.2157 22.3088 74.6767 21.8946 74.1344 21.4849C74.118 21.4725 74.0678 21.5046 73.9847 21.5794C73.8867 21.8333 73.7955 22.0236 73.7945 22.2144C73.7839 24.2402 73.7814 26.2661 73.7964 28.2918C73.798 28.5126 73.923 28.7326 73.9908 28.953ZM78.0912 9.35556C77.5521 9.14941 77.2178 9.66256 76.7524 9.76028C76.3752 9.83947 76.0313 10.2068 75.7375 10.5091C75.5186 10.7343 75.0469 10.8427 75.2149 11.3333C75.2229 11.3566 75.0919 11.4228 75.0308 11.475C74.8793 11.6049 74.6377 11.7146 74.5971 11.8742C74.4186 12.5752 73.7994 13.1509 73.9984 13.9619C74.0232 14.0627 73.9716 14.2144 73.9026 14.2999C73.6963 14.5552 73.5193 15.7718 73.7519 15.8988C74.1262 16.1033 73.9337 16.4044 74.0093 16.6561C74.2008 17.2939 74.2908 18.0035 74.6418 18.541C75.023 19.1249 75.6031 19.6182 76.1855 20.0233C77.1733 20.7103 78.2597 21.2057 79.5194 21.1357C79.9394 21.1123 80.3782 21.1806 80.7769 21.0812C81.2816 20.9553 81.7463 20.6787 82.2421 20.5069C83.1324 20.1985 83.8908 19.7523 84.2664 18.8281C84.3857 18.5345 84.4908 18.217 84.6842 17.9756C85.0121 17.5663 85.2995 17.1657 85.2552 16.6092C85.2467 16.502 85.2537 16.3832 85.2918 16.2845C85.6038 15.4771 85.5418 14.6675 85.3235 13.8547C85.1829 13.3313 85.0424 12.8079 84.9136 12.3285C84.783 12.2845 84.6269 12.2774 84.6008 12.2156C84.4598 11.8819 84.3918 11.5127 84.2208 11.1979C84.014 10.817 83.78 10.4665 83.2918 10.3136C82.8271 10.1681 82.3623 9.92356 81.9883 9.61344C81.5302 9.23351 80.9611 9.22391 80.457 9.06568C79.9222 8.89781 79.2922 9.0059 78.7067 9.04145C78.5253 9.05247 78.3534 9.22021 78.0912 9.35556Z" fill="white"/>
<path d="M120.428 20.8079C120.041 20.1476 119.653 19.5135 119.365 18.837C119.167 18.3705 119.018 17.8355 118.822 17.4058C118.283 16.2204 118.628 15.0427 118.587 13.8763C118.565 13.264 118.917 12.6317 119.132 12.0199C119.324 11.4743 119.489 10.898 119.797 10.4193C120.195 9.79988 120.676 9.21449 121.209 8.70568C121.754 8.18491 122.37 7.71541 123.021 7.33621C123.458 7.08216 124.003 7.00203 124.509 6.88405C125.569 6.63714 126.632 6.35268 127.733 6.50259C128.626 6.62415 129.533 6.72893 130.39 6.98803C130.924 7.14949 131.338 7.69405 131.871 7.87249C132.882 8.21112 133.345 9.11907 134.056 9.76219C134.291 9.97471 134.379 10.3459 134.545 10.6385C134.802 11.0907 135.068 11.5379 135.331 11.9865C135.348 12.0166 135.39 12.0378 135.397 12.0683C135.517 12.6187 135.73 13.1689 135.736 13.7211C135.768 16.6173 135.75 19.5141 135.746 22.4107C135.745 23.196 135.384 23.5502 134.589 23.5602C134.387 23.5628 134.185 23.5636 133.983 23.565C133.437 23.5686 133.001 23.1376 132.995 22.5767C132.989 22.0524 132.993 21.528 132.993 21.1345C132.406 21.597 131.793 22.0986 131.159 22.5726C130.704 22.9131 130.133 23.0408 129.642 23.2828C128.381 23.9048 127.065 23.8602 125.786 23.7158C125.285 23.6593 124.613 23.8074 124.125 23.2737C123.89 23.0163 123.375 23.0148 122.986 22.896C122.936 22.8805 122.873 22.8703 122.84 22.8352C122.124 22.0752 121.048 21.7357 120.428 20.8079ZM121.638 16.7977C121.436 17.4774 121.854 18.1181 122.175 18.4894C122.554 18.9271 122.857 19.4632 123.397 19.843C124.52 20.6333 125.667 21.1474 127.04 21.1398C127.297 21.1384 127.554 21.1426 127.811 21.1382C128.031 21.1344 128.269 21.1744 128.466 21.103C128.946 20.9285 129.42 20.7245 129.872 20.4879C130.341 20.2429 130.942 20.0467 131.197 19.6462C131.538 19.1084 132.042 18.7186 132.31 18.0726C132.651 17.2537 132.775 16.4096 132.96 15.5828C133.105 14.9308 132.936 14.236 132.733 13.5382C132.53 12.8434 132.356 12.1938 131.899 11.6255C131.658 11.326 131.495 10.96 131.235 10.6808C131.065 10.498 130.769 10.4388 130.558 10.2855C130.161 9.99713 129.821 9.60522 129.388 9.39699C128.95 9.18579 128.435 9.09313 127.944 9.04228C127.381 8.98397 126.807 9.02534 126.238 9.03131C126.112 9.03263 125.973 9.03853 125.865 9.09169C125.485 9.27767 125.135 9.59255 124.74 9.66039C124.086 9.7725 123.715 10.2799 123.208 10.5837C122.883 10.779 122.69 11.1973 122.442 11.5195C122.217 11.8124 121.981 12.099 121.785 12.4107C121.665 12.6021 121.577 12.8293 121.537 13.0516C121.493 13.2999 121.579 13.5797 121.505 13.8129C121.19 14.8005 121.137 15.7637 121.638 16.7977Z" fill="white"/>
<path d="M89.675 10.2012C89.8519 9.78566 90.0027 9.40618 90.2034 9.05513C90.4011 8.7092 90.6403 8.38515 90.8819 8.0672C90.9416 7.9887 91.0786 7.9617 91.1855 7.92819C91.2861 7.89665 91.4814 7.89864 91.4853 7.86732C91.5529 7.32345 92.0824 7.269 92.41 7.0318C92.6332 6.87014 93.0076 6.93586 93.2903 6.83343C94.4618 6.40887 95.6768 6.49154 96.8837 6.50668C97.1302 6.50977 97.3705 6.676 97.6216 6.72949C97.9352 6.79629 98.2599 6.81033 98.5748 6.87207C99.1033 6.97565 99.5341 7.28555 100.003 7.52516C100.657 7.8589 101.114 8.39123 101.653 8.83406C102.294 9.36082 102.324 10.345 101.792 10.9627C101.724 11.0411 101.602 11.1047 101.499 11.1142C101.262 11.1361 101.019 11.0962 100.784 11.1258C100.391 11.1753 100.085 11.0644 99.8046 10.7795C99.3112 10.2776 98.6752 9.99347 98.0811 9.63477C97.1533 9.0745 96.219 9.00777 95.2217 9.03193C94.9128 9.03941 94.5443 8.90559 94.3602 9.31796C94.346 9.34987 94.2629 9.3581 94.2102 9.36487C93.2662 9.48605 92.7501 10.1578 92.3403 10.8998C92.0603 11.4066 92.8042 12.5976 93.3464 12.8966C93.8282 13.1623 94.4487 13.047 94.8433 13.5094C94.901 13.5771 95.0898 13.528 95.2167 13.5435C95.5375 13.5825 95.9262 13.3998 96.1342 13.8266C96.1532 13.8654 96.2695 13.8583 96.341 13.8699C97.2604 14.019 98.236 14.0288 99.0781 14.3686C99.5808 14.5715 100.32 14.5266 100.618 15.2229C100.698 15.4111 101.026 15.4986 101.246 15.6217C101.842 15.9545 102.021 16.5468 102.275 17.1251C102.616 17.9026 102.616 18.7018 102.542 19.4947C102.488 20.0744 102.351 20.6689 101.906 21.1344C101.605 21.4497 101.414 22.0118 101.071 22.1128C100.535 22.2705 100.401 22.8985 99.779 22.9409C99.353 22.9699 98.9493 23.3223 98.5347 23.5284C98.5032 23.5441 98.4647 23.5503 98.429 23.5525C97.171 23.6293 95.9136 23.7338 94.6544 23.7669C94.1632 23.7798 93.6588 23.6667 93.177 23.5455C92.8151 23.4544 92.4797 23.2587 92.0797 23.087C92.0797 23.1148 92.1104 22.9532 92.0751 22.9372C91.5328 22.6923 90.9908 22.4416 90.4309 22.2418C89.6098 21.9487 88.8293 20.8123 89.0382 19.9617C89.1213 19.6234 89.5082 19.2928 89.8389 19.0968C90.3965 18.7664 91.367 19.149 91.7743 19.6569C92.0901 20.0506 92.4412 20.4314 93.0348 20.5209C93.5053 20.5918 93.946 20.859 94.4006 21.0374C94.4972 21.0753 94.5963 21.1348 94.6947 21.1357C95.5028 21.1432 96.3556 21.2997 97.1062 21.0919C97.8068 20.8979 98.6391 20.8633 99.1864 20.2624C99.3978 20.0303 99.5288 19.725 99.6943 19.4518C99.7835 19.3045 99.8893 19.1623 99.9484 19.0033C99.9955 18.8768 100.047 18.6835 99.9867 18.5968C99.6422 18.1042 99.2959 17.6053 98.8848 17.1702C98.6841 16.9579 98.3478 16.8644 98.0618 16.743C97.1818 16.3695 96.2558 16.2516 95.3119 16.122C94.8618 16.0603 94.3855 15.8552 93.8901 15.8461C93.7956 15.1901 93.0574 15.7769 92.7593 15.2334C92.5718 14.8915 91.8124 14.9067 91.3949 14.6323C91.0467 14.4034 90.609 14.2228 90.5106 13.6605C90.4423 13.2704 90.0919 12.9314 89.8766 12.5642C89.7943 12.424 89.6836 12.2709 89.6783 12.1204C89.6566 11.4975 89.6702 10.8734 89.675 10.2012Z" fill="white"/>
<path d="M68.2711 22.8011C67.8099 23.789 68.1092 23.617 66.4284 23.5277C65.3795 23.472 65.8695 22.4389 65.6874 21.8463C65.1031 22.2087 64.548 22.5553 63.9904 22.8979C63.6571 23.1027 63.3201 23.3017 62.9838 23.5019C62.9381 23.5292 62.8882 23.5652 62.8385 23.5681C61.6489 23.6382 60.4596 23.7297 59.2688 23.7577C58.8469 23.7676 58.2608 23.7647 58.0349 23.5126C57.6962 23.1348 57.1071 23.4735 56.878 22.9376C56.8052 22.7673 56.4466 22.6887 56.2038 22.6269C55.5211 22.4532 55.1196 21.9319 54.6883 21.4492C54.3282 21.0463 53.9691 20.6386 53.653 20.2017C53.4904 19.977 53.3764 19.6932 53.3204 19.4198C53.138 18.5291 52.8731 17.6333 52.8548 16.7351C52.7957 13.8382 52.8513 10.9392 52.8206 8.04137C52.8123 7.26095 53.0093 6.9112 53.8961 6.72583C54.331 6.63493 55.0899 6.92469 55.267 7.28608C55.3486 7.45265 55.3641 7.66443 55.3646 7.85581C55.3704 10.4788 55.3599 13.1018 55.3801 15.7246C55.3824 16.0223 55.5479 16.3184 55.6349 16.616C55.6598 16.7011 55.6989 16.7915 55.6904 16.8753C55.5986 17.7805 55.9821 18.51 56.4893 19.2191C56.7216 19.5437 56.7489 20.0322 57.1767 20.2009C57.7697 20.4347 58.4529 20.5116 58.9694 20.8505C59.7465 21.3603 60.5485 21.0944 61.3301 21.1143C61.8262 21.127 62.3342 20.8961 62.8265 20.7417C63.0697 20.6654 63.2924 20.5203 63.5194 20.397C64.2282 20.012 64.7573 19.5119 65.1296 18.7389C65.5199 17.9285 65.7488 17.1477 65.7413 16.2541C65.7183 13.5029 65.7327 10.7514 65.7331 8.00007C65.7333 7.00913 66.0888 6.64279 67.0655 6.72197C67.6466 6.76909 68.2885 6.81407 68.3666 7.68963C68.3652 7.85695 68.3663 7.95687 68.3533 8.09811C68.3158 8.39316 68.2724 8.64688 68.2721 8.90064C68.2679 12.9591 68.2673 17.0176 68.2732 21.076C68.2736 21.3468 68.3322 21.6174 68.3561 21.9328C68.3226 22.252 68.2969 22.5266 68.2711 22.8011Z" fill="white"/>
<path d="M103.003 16.0656C103.003 15.5348 103.051 15.052 102.993 14.5823C102.856 13.479 103.249 12.4554 103.5 11.4306C103.653 10.8069 104.174 10.2668 104.555 9.70682C105.237 8.70715 106.275 8.0859 107.171 7.31687C107.392 7.12804 107.711 7.00463 108.002 6.9567C109.185 6.76181 110.338 6.30118 111.57 6.49649C112.469 6.63895 113.407 6.67882 114.251 6.97846C114.874 7.19977 115.334 7.84934 115.944 8.15208C116.423 8.39015 116.705 8.76948 117.058 9.10879C117.465 9.49981 117.845 9.97472 117.627 10.5132C117.475 10.8908 117.048 11.2567 116.657 11.4176C115.951 11.708 115.479 11.1948 115.018 10.7232C114.758 10.458 114.423 10.2657 114.116 10.0485C113.827 9.84414 113.531 9.65045 113.239 9.45123C113.209 9.4312 113.187 9.3956 113.156 9.38368C112.132 8.99666 111.035 8.82918 110.003 9.07251C108.704 9.37885 107.619 10.1967 106.711 11.1777C106.449 11.4601 106.348 11.9013 106.209 12.2827C106.015 12.812 106.009 13.4626 105.79 13.8939C105.508 14.4493 105.581 14.9433 105.557 15.4622C105.545 15.7058 105.734 15.9556 105.815 16.2081C105.852 16.3256 105.839 16.4583 105.866 16.5805C105.982 17.1149 106.007 17.6982 106.25 18.1687C106.539 18.7278 106.975 19.2307 107.423 19.6834C108.032 20.2985 108.901 20.473 109.641 20.8605C110.443 21.2801 111.224 21.1266 112.002 21.1147C112.995 21.0996 113.97 20.7408 114.741 20.1549C115.234 19.7804 115.684 19.7744 116.207 19.6861C116.877 19.5728 117.075 20.0526 117.306 20.4362C117.527 20.8013 117.248 21.5128 116.905 21.7867C116.747 21.9125 116.637 22.1058 116.468 22.2072C116.051 22.4575 115.614 22.6748 115.183 22.9009C114.789 23.1076 114.392 23.3091 113.995 23.5107C113.948 23.5347 113.894 23.5569 113.842 23.56C112.622 23.6343 111.398 23.7839 110.181 23.7476C109.49 23.7271 108.745 23.5183 108.137 23.1879C106.9 22.5159 105.61 21.8735 104.728 20.7083C104.421 20.3016 104.275 19.7957 103.798 19.4849C103.597 19.3537 103.53 18.9647 103.471 18.6786C103.296 17.8294 103.157 16.973 103.003 16.0656Z" fill="white"/>
<path d="M68.3126 22.7796C68.2983 22.5258 68.324 22.2513 68.3611 21.8824C68.3712 17.2107 68.3701 12.6334 68.3689 8.05603C68.3677 7.95611 68.3666 7.85619 68.3776 7.72852C68.4234 7.87033 68.4865 8.03987 68.4867 8.20948C68.492 12.8739 68.4925 17.5383 68.4851 22.2027C68.4848 22.3881 68.3988 22.5735 68.3126 22.7796Z" fill="white"/>
<path d="M73.9958 28.9034C73.9223 28.7343 73.7973 28.5143 73.7957 28.2935C73.7807 26.2678 73.7832 24.2419 73.7938 22.2161C73.7948 22.0253 73.886 21.835 73.9612 21.6133C73.9919 24.0055 73.9966 26.4288 73.9958 28.9034Z" fill="white"/>
<path d="M43.5372 32.4043C43.5871 32.4635 43.6371 32.5227 43.687 32.5819C43.6705 32.6032 43.654 32.6245 43.6375 32.6459C43.5851 32.611 43.5328 32.5762 43.4883 32.493C43.5098 32.4312 43.5235 32.4178 43.5372 32.4043Z" fill="white"/>
<path d="M43.4752 32.4655C43.4138 32.4364 43.3729 32.3872 43.332 32.3379C43.3853 32.344 43.4385 32.3501 43.5143 32.3806C43.5231 32.4184 43.5094 32.4319 43.4752 32.4655Z" fill="white"/>
<path d="M68.3579 8.09766C68.3732 12.6337 68.3744 17.211 68.372 21.838C68.3368 21.6169 68.2782 21.3463 68.2778 21.0756C68.2719 17.0171 68.2724 12.9587 68.2767 8.90019C68.2769 8.64643 68.3204 8.39271 68.3579 8.09766Z" fill="white"/>
</g>
<defs>
<clipPath id="clip0_2420_11686">
<rect width="158" height="32.8087" fill="white"/>
</clipPath>
</defs>
</svg>
