<svg width="28" height="24" viewBox="0 0 28 24" fill="none" xmlns="http://www.w3.org/2000/svg">
<path d="M0 6.00982V12.0398C0.00026 12.8363 0.3161 13.6002 0.87836 14.1644C1.44063 14.7285 2.20351 15.0469 3 15.0498H8V2.99981H3C2.20351 3.00272 1.44063 3.32109 0.87836 3.88523C0.3161 4.44937 0.00026 5.21332 0 6.00982ZM18.68 0.519807C18.2753 0.244627 17.8091 0.073317 17.3225 0.020997C16.8359 -0.031333 16.3439 0.0369466 15.89 0.219807L10 2.56981V15.5298L15.89 17.8798C16.2436 18.0186 16.6201 18.0898 17 18.0898C17.3943 18.0911 17.785 18.0144 18.1496 17.8641C18.5142 17.7138 18.8454 17.4929 19.1243 17.2141C19.4031 16.9352 19.624 16.604 19.7743 16.2394C19.9246 15.8748 20.0013 15.4841 20 15.0898V2.99981C20 2.50993 19.8796 2.02756 19.6494 1.59512C19.4192 1.16268 19.0863 0.793417 18.68 0.519807ZM2 20.0498C2 20.8454 2.31607 21.6085 2.87868 22.1711C3.44129 22.7337 4.20435 23.0498 5 23.0498C5.79565 23.0498 6.55871 22.7337 7.12132 22.1711C7.68393 21.6085 8 20.8454 8 20.0498V16.9998H2V20.0498ZM27 8.04782H24C23.7348 8.04782 23.4804 8.15312 23.2929 8.34072C23.1054 8.52822 23 8.78262 23 9.04782C23 9.31302 23.1054 9.56742 23.2929 9.75492C23.4804 9.94242 23.7348 10.0478 24 10.0478H27C27.2652 10.0478 27.5196 9.94242 27.7071 9.75492C27.8946 9.56742 28 9.31302 28 9.04782C28 8.78262 27.8946 8.52822 27.7071 8.34072C27.5196 8.15312 27.2652 8.04782 27 8.04782ZM24 3.04781C24.1549 3.04782 24.3077 3.01151 24.446 2.94181L26.446 1.94181C26.5645 1.88373 26.6704 1.80277 26.7574 1.7036C26.8445 1.60442 26.9111 1.48899 26.9533 1.36396C26.9956 1.23892 27.0127 1.10677 27.0036 0.975097C26.9945 0.843427 26.9595 0.714867 26.9005 0.596807C26.8415 0.478747 26.7597 0.373537 26.6599 0.287237C26.56 0.200937 26.4441 0.135257 26.3187 0.0939769C26.1934 0.0527069 26.0611 0.0366567 25.9295 0.0467467C25.7979 0.0568467 25.6696 0.0928867 25.552 0.152807L23.552 1.15281C23.3501 1.25341 23.1882 1.41931 23.0925 1.62355C22.9968 1.82779 22.973 2.05838 23.0249 2.27788C23.0768 2.49737 23.2013 2.69288 23.3784 2.83265C23.5554 2.97242 23.7745 3.04824 24 3.04781ZM26.447 16.1528L24.447 15.1528C24.3294 15.0929 24.2011 15.0568 24.0695 15.0467C23.9379 15.0366 23.8056 15.0527 23.6803 15.094C23.5549 15.1352 23.439 15.2009 23.3391 15.2872C23.2393 15.3735 23.1575 15.4787 23.0985 15.5968C23.0395 15.7148 23.0045 15.8434 22.9954 15.9751C22.9863 16.1067 23.0034 16.2389 23.0457 16.3639C23.0879 16.489 23.1545 16.6044 23.2416 16.7036C23.3286 16.8028 23.4345 16.8837 23.553 16.9418L25.553 17.9418C25.6913 18.0115 25.8441 18.0478 25.999 18.0478C26.2245 18.0482 26.4436 17.9724 26.6206 17.8326C26.7977 17.6929 26.9222 17.4974 26.9741 17.2779C27.026 17.0584 27.0022 16.8278 26.9065 16.6235C26.8108 16.4193 26.6489 16.2534 26.447 16.1528Z" fill="#FF9314"/>
</svg>
