<svg width="32" height="32" viewBox="0 0 32 32" fill="none" xmlns="http://www.w3.org/2000/svg">
<path d="M15.915 5.66699C11.3715 3.04349 5.561 4.60049 2.938 9.14399C0.5775 13.2325 1.61 18.339 5.1495 21.2335L3.6675 23.4215L3 23.0365L1 26.5005L5.33 29.0005L7.33 25.5365L6.339 24.9645L7.7575 22.7505C12.0475 24.406 17.0205 22.7515 19.392 18.644C22.0155 14.1005 20.459 8.28999 15.915 5.66699Z" fill="#0B9EA8"/>
<path d="M11.164 21.3926C15.3062 21.3926 18.664 18.0347 18.664 13.8926C18.664 9.75045 15.3062 6.39258 11.164 6.39258C7.02192 6.39258 3.66406 9.75045 3.66406 13.8926C3.66406 18.0347 7.02192 21.3926 11.164 21.3926Z" fill="#E7F5F6"/>
<path d="M4.67428 2.90573C3.71378 2.60473 3.39478 2.28573 3.09378 1.32523C3.06478 1.23273 2.93278 1.23273 2.90378 1.32523C2.60278 2.28573 2.28378 2.60473 1.32328 2.90573C1.23078 2.93473 1.23078 3.06673 1.32328 3.09573C2.28378 3.39673 2.60278 3.71573 2.90378 4.67623C2.93278 4.76873 3.06478 4.76873 3.09378 4.67623C3.39478 3.71573 3.71378 3.39673 4.67428 3.09573C4.76678 3.06673 4.76678 2.93473 4.67428 2.90573ZM24.6743 6.40573C23.7138 6.10473 23.3948 5.78573 23.0938 4.82523C23.0648 4.73273 22.9328 4.73273 22.9038 4.82523C22.6028 5.78573 22.2838 6.10473 21.3233 6.40573C21.2308 6.43473 21.2308 6.56673 21.3233 6.59573C22.2838 6.89673 22.6028 7.21573 22.9038 8.17623C22.9328 8.26873 23.0648 8.26873 23.0938 8.17623C23.3948 7.21573 23.7138 6.89673 24.6743 6.59573C24.7668 6.56673 24.7668 6.43473 24.6743 6.40573Z" fill="#40E0EA"/>
<path d="M25 25H31V31H25V25Z" fill="#15C7D2"/>
<path d="M27 25H29V27.5H27V25Z" fill="#BEF8FC"/>
<path d="M19 25H25V31H19V25Z" fill="#26DFEB"/>
<path d="M21 25H23V27.5H21V25Z" fill="#BEF8FC"/>
<path d="M22 19H28V25H22V19Z" fill="#7BEEF5"/>
<path d="M24 19H26V21.5H24V19Z" fill="#BEF8FC"/>
</svg>
