<svg width="32" height="32" viewBox="0 0 32 32" fill="none" xmlns="http://www.w3.org/2000/svg">
<path fill-rule="evenodd" clip-rule="evenodd" d="M26.452 24.2572C26.452 28.6519 20.4254 29.1599 15.8934 29.1599L15.569 29.1596C12.6816 29.1526 5.33203 28.9703 5.33203 24.2305C5.33203 19.9256 11.1165 19.3502 15.614 19.3285L16.2177 19.3282C19.1049 19.3352 26.452 19.5175 26.452 24.2572ZM15.8934 21.3279C10.212 21.3279 7.33203 22.3039 7.33203 24.2305C7.33203 26.1745 10.212 27.1599 15.8934 27.1599C21.5734 27.1599 24.452 26.1839 24.452 24.2572C24.452 22.3132 21.5734 21.3279 15.8934 21.3279ZM15.8934 2.66602C19.7974 2.66602 22.972 5.84202 22.972 9.74602C22.972 13.65 19.7974 16.8247 15.8934 16.8247H15.8507C11.9547 16.8127 8.7987 13.6353 8.81199 9.74202C8.81199 5.84202 11.988 2.66602 15.8934 2.66602ZM15.8934 4.57002C13.0387 4.57002 10.716 6.89135 10.716 9.74602C10.7067 12.5913 13.012 14.9114 15.8547 14.922L15.8934 15.874V14.922C18.7467 14.922 21.068 12.5993 21.068 9.74602C21.068 6.89135 18.7467 4.57002 15.8934 4.57002Z" fill="#187CFF"/>
</svg>
