<svg width="32" height="32" viewBox="0 0 32 32" fill="none" xmlns="http://www.w3.org/2000/svg">
<mask id="mask0_2420_11115" style="mask-type:alpha" maskUnits="userSpaceOnUse" x="0" y="0" width="32" height="32">
<rect width="32" height="32" fill="#D9D9D9"/>
</mask>
<g mask="url(#mask0_2420_11115)">
<path d="M6.66667 27.9997C5.93333 27.9997 5.30556 27.7386 4.78333 27.2163C4.26111 26.6941 4 26.0663 4 25.333C4 24.5997 4.26111 23.9719 4.78333 23.4497C5.30556 22.9275 5.93333 22.6663 6.66667 22.6663C7.4 22.6663 8.02778 22.9275 8.55 23.4497C9.07222 23.9719 9.33333 24.5997 9.33333 25.333C9.33333 26.0663 9.07222 26.6941 8.55 27.2163C8.02778 27.7386 7.4 27.9997 6.66667 27.9997ZM22.6667 27.9997C22.6667 25.4219 22.1778 23.0052 21.2 20.7497C20.2222 18.4941 18.8833 16.5163 17.1833 14.8163C15.4833 13.1163 13.5056 11.7775 11.25 10.7997C8.99444 9.8219 6.57778 9.33301 4 9.33301V5.33301C7.13333 5.33301 10.0778 5.92745 12.8333 7.11634C15.5889 8.30523 17.9889 9.9219 20.0333 11.9663C22.0778 14.0108 23.6944 16.4108 24.8833 19.1663C26.0722 21.9219 26.6667 24.8663 26.6667 27.9997H22.6667ZM14.6667 27.9997C14.6667 25.0441 13.6278 22.5275 11.55 20.4497C9.47222 18.3719 6.95556 17.333 4 17.333V13.333C6.04444 13.333 7.95556 13.7163 9.73333 14.483C11.5111 15.2497 13.0611 16.2941 14.3833 17.6163C15.7056 18.9386 16.75 20.4886 17.5167 22.2663C18.2833 24.0441 18.6667 25.9552 18.6667 27.9997H14.6667Z" fill="#187CFF"/>
</g>
</svg>
