<svg width="33" height="32" viewBox="0 0 33 32" fill="none" xmlns="http://www.w3.org/2000/svg">
<path fill-rule="evenodd" clip-rule="evenodd" d="M14.8063 19.7567L19.6823 27.6674C19.8957 28.014 20.229 28.01 20.3637 27.9914C20.4983 27.9727 20.8223 27.89 20.9397 27.4967L27.037 6.90337C27.1437 6.53937 26.9477 6.29137 26.8597 6.20337C26.7743 6.11537 26.5303 5.92737 26.177 6.02737L5.569 12.062C5.17833 12.1767 5.093 12.5047 5.07433 12.6394C5.05567 12.7767 5.05033 13.1167 5.39567 13.334L13.397 18.338L20.4663 11.194C20.8543 10.802 21.4877 10.798 21.881 11.186C22.2743 11.574 22.277 12.2087 21.889 12.6007L14.8063 19.7567ZM20.2597 29.9994C19.3317 29.9994 18.481 29.5274 17.9797 28.7167L12.8103 20.3287L4.33567 15.0287C3.42233 14.4567 2.945 13.438 3.093 12.3674C3.23967 11.2967 3.97433 10.446 5.00633 10.1434L25.6143 4.1087C26.5623 3.83137 27.5783 4.09404 28.277 4.79004C28.9757 5.4927 29.2357 6.51937 28.953 7.47137L22.8557 28.0634C22.5503 29.0994 21.697 29.8314 20.629 29.974C20.5037 29.99 20.3823 29.9994 20.2597 29.9994Z" fill="#187CFF"/>
</svg>
