<svg width="33" height="32" viewBox="0 0 33 32" fill="none" xmlns="http://www.w3.org/2000/svg">
<path fill-rule="evenodd" clip-rule="evenodd" d="M16.2655 6C16.1442 6 15.8455 6.03333 15.6868 6.35067L13.2522 11.2187C12.8668 11.988 12.1242 12.5227 11.2655 12.6453L5.81485 13.4307C5.45485 13.4827 5.33218 13.7493 5.29485 13.8613C5.26151 13.9693 5.20818 14.244 5.45618 14.4813L9.39751 18.268C10.0255 18.872 10.3108 19.7427 10.1615 20.5947L9.23351 25.9413C9.17618 26.276 9.38551 26.4707 9.47885 26.5373C9.57751 26.612 9.84151 26.76 10.1682 26.5893L15.0415 24.0627C15.8095 23.6667 16.7242 23.6667 17.4895 24.0627L22.3615 26.588C22.6895 26.7573 22.9535 26.6093 23.0535 26.5373C23.1468 26.4707 23.3562 26.276 23.2988 25.9413L22.3682 20.5947C22.2188 19.7427 22.5042 18.872 23.1322 18.268L27.0735 14.4813C27.3228 14.244 27.2695 13.968 27.2348 13.8613C27.1988 13.7493 27.0762 13.4827 26.7162 13.4307L21.2655 12.6453C20.4082 12.5227 19.6655 11.988 19.2802 11.2173L16.8428 6.35067C16.6855 6.03333 16.3868 6 16.2655 6ZM9.86151 28.6667C9.31085 28.6667 8.76418 28.4933 8.29618 28.152C7.48818 27.56 7.09218 26.5827 7.26418 25.5987L8.19218 20.252C8.22685 20.0533 8.15885 19.852 8.01218 19.7107L4.07085 15.924C3.34551 15.2293 3.08551 14.2027 3.39218 13.2493C3.70151 12.2853 4.52018 11.596 5.52951 11.452L10.9802 10.6667C11.1908 10.6373 11.3722 10.508 11.4628 10.324L13.8988 5.45467C14.3482 4.55733 15.2548 4 16.2655 4C17.2762 4 18.1828 4.55733 18.6322 5.45467L21.0695 10.3227C21.1615 10.508 21.3415 10.6373 21.5508 10.6667L27.0015 11.452C28.0108 11.596 28.8295 12.2853 29.1388 13.2493C29.4455 14.2027 29.1842 15.2293 28.4588 15.924L24.5175 19.7107C24.3708 19.852 24.3042 20.0533 24.3388 20.2507L25.2682 25.5987C25.4388 26.584 25.0428 27.5613 24.2335 28.152C23.4135 28.7533 22.3455 28.8347 21.4402 28.3627L16.5695 25.8387C16.3788 25.74 16.1508 25.74 15.9602 25.8387L11.0895 28.364C10.7002 28.5667 10.2802 28.6667 9.86151 28.6667Z" fill="#187CFF"/>
</svg>
