<svg width="33" height="32" viewBox="0 0 33 32" fill="none" xmlns="http://www.w3.org/2000/svg">
<path fill-rule="evenodd" clip-rule="evenodd" d="M16.0467 19.2193L16.1973 19.2194L16.5341 19.2205C19.1082 19.2375 24.9907 19.4975 24.9907 23.4847C24.9907 27.4456 19.3132 27.704 16.5742 27.7208L15.5594 27.7208C12.9851 27.7039 7.10138 27.4442 7.10138 23.462C7.10138 19.496 12.9851 19.2374 15.5594 19.2205L15.8962 19.2194C15.9484 19.2193 15.9986 19.2193 16.0467 19.2193ZM16.0467 21.2193C12.8787 21.2193 9.10138 21.6087 9.10138 23.462C9.10138 25.2734 12.6533 25.6969 15.7572 25.7209L16.0467 25.722C19.2147 25.722 22.9907 25.334 22.9907 23.4847C22.9907 21.6127 19.2147 21.2193 16.0467 21.2193ZM26.6515 18.6783C29.8822 19.1623 30.5609 20.6796 30.5609 21.8676C30.5609 22.5929 30.2755 23.9169 28.3689 24.6436C28.2515 24.6876 28.1315 24.7089 28.0129 24.7089C27.6102 24.7089 27.2302 24.4636 27.0782 24.0649C26.8809 23.5489 27.1409 22.9703 27.6569 22.7743C28.5609 22.4303 28.5609 22.0503 28.5609 21.8676C28.5609 21.2836 27.8182 20.8756 26.3542 20.6569C25.8089 20.5743 25.4315 20.0663 25.5129 19.5183C25.5942 18.9716 26.1009 18.6076 26.6515 18.6783ZM6.57925 19.5183C6.66058 20.0663 6.28325 20.5743 5.73792 20.6569C4.27392 20.8756 3.53125 21.2836 3.53125 21.8676C3.53125 22.0503 3.53125 22.4289 4.43658 22.7743C4.95258 22.9703 5.21258 23.5489 5.01525 24.0649C4.86325 24.4636 4.48325 24.7089 4.08058 24.7089C3.96192 24.7089 3.84192 24.6876 3.72458 24.6436C1.81658 23.9156 1.53125 22.5916 1.53125 21.8676C1.53125 20.6809 2.20992 19.1623 5.44192 18.6783C5.99258 18.6089 6.49658 18.9716 6.57925 19.5183ZM16.0467 5.33398C19.4067 5.33398 22.1387 8.06732 22.1387 11.426C22.1387 14.7847 19.4067 17.518 16.0467 17.518H16.0107C14.3841 17.5127 12.8601 16.8753 11.7187 15.7233C10.5747 14.5727 9.94938 13.0447 9.956 11.422C9.956 8.06732 12.688 5.33398 16.0467 5.33398ZM16.0467 7.33398C13.7907 7.33398 11.956 9.16998 11.956 11.426C11.9521 12.5193 12.3707 13.542 13.1374 14.314C13.9041 15.086 14.9254 15.514 16.0134 15.518L16.0467 16.518V15.518C18.3027 15.518 20.1387 13.6833 20.1387 11.426C20.1387 9.16998 18.3027 7.33398 16.0467 7.33398ZM24.2987 6.63998C26.6427 7.02532 28.3454 9.03065 28.3454 11.408C28.3401 13.8013 26.5521 15.8547 24.1854 16.1867C24.1387 16.1933 24.0921 16.196 24.0467 16.196C23.5561 16.196 23.128 15.8347 23.0574 15.3347C22.9814 14.7867 23.3614 14.2813 23.9094 14.2053C25.2961 14.0107 26.3427 12.808 26.3454 11.4053C26.3454 10.0147 25.3481 8.83865 23.9734 8.61332C23.4294 8.52398 23.0601 8.00932 23.1494 7.46398C23.2401 6.91865 23.7507 6.55332 24.2987 6.63998ZM8.94405 7.46398C9.03338 8.00932 8.66405 8.52398 8.12005 8.61332C6.74538 8.83865 5.74805 10.0147 5.74805 11.408C5.75072 12.808 6.79738 14.012 8.18272 14.2053C8.73072 14.2813 9.11072 14.7867 9.03472 15.3347C8.96405 15.8347 8.53605 16.196 8.04538 16.196C8.00005 16.196 7.95338 16.1933 7.90672 16.1867C5.54005 15.8547 3.75338 13.8013 3.74805 11.4107C3.74805 9.03065 5.45072 7.02532 7.79472 6.63998C8.35605 6.55198 8.85338 6.92132 8.94405 7.46398Z" fill="#187CFF"/>
</svg>
