<svg width="28" height="29" viewBox="0 0 28 29" fill="none" xmlns="http://www.w3.org/2000/svg">
<path d="M3.5 10.1731C3.5 9.0859 3.5 8.54231 3.67761 8.1135C3.91444 7.54177 4.36868 7.08753 4.9404 6.85071C5.36921 6.6731 5.91281 6.6731 7 6.6731H21C22.0872 6.6731 22.6308 6.6731 23.0596 6.85071C23.6313 7.08753 24.0856 7.54177 24.3224 8.1135C24.5 8.54231 24.5 9.0859 24.5 10.1731V19.5064C24.5 20.5936 24.5 21.1372 24.3224 21.5661C24.0856 22.1377 23.6313 22.592 23.0596 22.8289C22.6308 23.0064 22.0872 23.0064 21 23.0064H7C5.91281 23.0064 5.36921 23.0064 4.9404 22.8289C4.36868 22.592 3.91444 22.1377 3.67761 21.5661C3.5 21.1372 3.5 20.5936 3.5 19.5064V10.1731Z" stroke="white" stroke-width="2" stroke-linecap="round" stroke-linejoin="round"/>
<path d="M4.66699 7.83984L12.4638 14.662C13.3435 15.4318 14.6572 15.4318 15.5368 14.662L23.3337 7.83984" stroke="white" stroke-width="2" stroke-linecap="round" stroke-linejoin="round"/>
</svg>
